<svg xmlns="http://www.w3.org/2000/svg" width="45" height="45" viewBox="0 0 45 45"><g id="Group_475" data-name="Group 475" transform="translate(-14453.396 -11936.396)"><g id="Group_474" data-name="Group 474" transform="translate(14453.365 11936.365)"><g id="Group_473" data-name="Group 473" transform="translate(0 0)"><rect id="Rectangle_275" data-name="Rectangle 275" width="45" height="45" transform="translate(0.031 0.031)" fill="none"></rect><path id="Path_134" data-name="Path 134" d="M22.127,26.73l1.146-1.141L24.6,24.27a3.357,3.357,0,0,1,4.986,0q2.025,2.007,4.108,4.106a3.383,3.383,0,0,1-.015,5.055,8.979,8.979,0,0,1-1.438,1.078q-.218.141-.458.288c-.429.265-.887.534-1.344.794-.275.156-.489.275-.592.331a8.1,8.1,0,0,1-6.206.509c-.177-.054-.491-.161-.924-.325-.711-.27-1.5-.607-2.35-1.015a34.429,34.429,0,0,1-7.1-4.548,31.2,31.2,0,0,1-2.592-2.415Q9.682,27.1,8.79,25.978a35.288,35.288,0,0,1-4.662-7.693c-.409-.919-.743-1.775-1.007-2.545-.161-.468-.264-.808-.29-.92a7.645,7.645,0,0,1,.819-6.209c.069-.106.189-.288.347-.521.263-.388.537-.775.808-1.139q.177-.237.345-.451a9.761,9.761,0,0,1,.786-.9,3.373,3.373,0,0,1,4.987,0c.593.582,3.154,3.145,4.081,4.08a3.371,3.371,0,0,1,.005,5.079L13.621,16.15,12.575,17.2l-.34.34c.1.239.241.576.428.982a23.388,23.388,0,0,0,1.416,2.632,12.548,12.548,0,0,0,1.788,2.291,14.148,14.148,0,0,0,1.99,1.587,22.866,22.866,0,0,0,2.792,1.586c.456.22.828.384,1.1.494Zm10.218,2.987q-2.081-2.1-4.1-4.094a1.474,1.474,0,0,0-2.31,0l-1.321,1.313-1.149,1.144-.52.518a1.654,1.654,0,0,1-1.733.351c-.287-.111-.772-.319-1.392-.618a24.728,24.728,0,0,1-3.026-1.72,16.011,16.011,0,0,1-2.258-1.8,14.37,14.37,0,0,1-2.07-2.639,25.251,25.251,0,0,1-1.533-2.848c-.269-.582-.458-1.039-.553-1.29a1.633,1.633,0,0,1,.37-1.7l.475-.475,1.045-1.046,1.385-1.388a1.5,1.5,0,0,0-.008-2.4c-.921-.929-3.477-3.487-4.062-4.061a1.49,1.49,0,0,0-2.321,0,8.056,8.056,0,0,0-.626.722c-.1.128-.205.265-.313.409-.253.339-.511.705-.76,1.072-.149.22-.261.39-.336.5a5.829,5.829,0,0,0-.59,4.587c.04.149.13.447.276.873.247.719.56,1.522.946,2.389a33.408,33.408,0,0,0,4.41,7.279q.841,1.051,1.77,2.025a29.284,29.284,0,0,0,2.434,2.268,32.54,32.54,0,0,0,6.711,4.3c.8.384,1.54.7,2.2.951.391.149.666.242.867.306a6.276,6.276,0,0,0,4.659-.371c.115-.062.319-.175.582-.325.439-.249.878-.507,1.285-.759q.224-.138.427-.269a7.864,7.864,0,0,0,1.117-.818A1.5,1.5,0,0,0,32.346,29.717Z" transform="translate(1.857 3.66)" fill="#fff"></path><path id="Path_135" data-name="Path 135" d="M30.513,20.563a.951.951,0,0,1-1.9,0A16.161,16.161,0,0,0,12.451,4.4a.951.951,0,0,1,0-1.9A18.063,18.063,0,0,1,30.513,20.563Z" transform="translate(9.969 1.857)" fill="#fff"></path><path id="Path_136" data-name="Path 136" d="M24.809,17.859a.951.951,0,0,1-1.9,0A10.457,10.457,0,0,0,12.451,7.4a.951.951,0,0,1,0-1.9A12.359,12.359,0,0,1,24.809,17.859Z" transform="translate(9.969 4.561)" fill="#fff"></path></g></g></g></svg>